<?xml version="1.0" encoding="UTF-8"?>
<svg width="675px" height="128px" viewBox="0 0 675 128" version="1.1" xmlns="http://www.w3.org/2000/svg" xmlns:xlink="http://www.w3.org/1999/xlink">
    <!-- Generator: Sketch 50.2 (55047) - http://www.bohemiancoding.com/sketch -->
    <title>Page 1 Copy</title>
    <desc>Created with Sketch.</desc>
    <defs>
        <polygon id="path-1" points="0 0 674.818851 0 674.818851 127.154294 0 127.154294"></polygon>
    </defs>
    <g id="Page-1" stroke="none" stroke-width="1" fill="none" fill-rule="evenodd">
        <g id="Desktop---1---Home---Crop" transform="translate(-382.000000, -389.000000)">
            <g id="Page-1-Copy" transform="translate(719.500000, 453.041150) rotate(-360.000000) translate(-719.500000, -453.041150) translate(382.000000, 389.041150)">
                <mask id="mask-2" fill="white">
                    <use xlink:href="#path-1"></use>
                </mask>
                <g id="Clip-2"></g>
                <path d="M611.745077,71.2676015 L650.611975,71.2676015 C649.930426,60.1580759 642.600414,52.4671045 632.030721,52.4671045 C619.75767,52.4671045 613.790758,59.8169441 611.745077,71.2676015 Z M650.611975,98.4413337 L673.45472,98.4413337 C670.21607,113.993843 656.407726,127.154294 633.906272,127.154294 C604.926486,127.154294 588.562073,106.815602 588.562073,80.6673332 C588.562073,54.6896298 606.119456,34.5225381 631.690462,34.5225381 C659.817538,34.5225381 674.818851,56.0562245 674.818851,87.3328418 L611.403787,87.3328418 C613.108177,100.834425 620.609349,109.208694 633.735111,109.208694 C642.770544,109.208694 648.054875,105.105809 650.611975,98.4413337 Z M570.695364,98.7824655 L570.695364,52.2965386 L585.696677,52.2965386 L585.696677,36.9156293 L570.695364,36.9156293 L570.695364,9.56926384 L548.022749,9.56926384 L548.022749,36.9156293 L535.919827,36.9156293 L535.919827,52.2965386 L548.022749,52.2965386 L548.022749,103.739214 C548.022749,120.317186 560.467992,124.761203 571.718204,124.761203 C580.923766,124.761203 586.208097,124.419037 586.208097,124.419037 L586.208097,107.328334 C586.208097,107.328334 582.287897,107.499934 579.389506,107.499934 C574.275305,107.499934 570.695364,105.277408 570.695364,98.7824655 Z M510.995313,71.2676015 C510.313763,60.1580759 502.983752,52.4671045 492.414059,52.4671045 C480.139976,52.4671045 474.174096,59.8169441 472.128415,71.2676015 L510.995313,71.2676015 Z M535.202189,87.3328418 L471.787125,87.3328418 C473.491515,100.834425 480.991656,109.208694 494.118449,109.208694 C503.153882,109.208694 508.438213,105.105809 510.995313,98.4413337 L533.837027,98.4413337 C530.599408,113.993843 516.791064,127.154294 494.28961,127.154294 C465.308793,127.154294 448.94438,106.815602 448.94438,80.6673332 C448.94438,54.6896298 466.502794,34.5225381 492.0738,34.5225381 C520.200875,34.5225381 535.202189,56.0562245 535.202189,87.3328418 Z M419.622272,50.9289102 L419.110852,50.9289102 L419.110852,36.9156293 L396.779527,36.9156293 L396.779527,124.589603 L419.962532,124.589603 L419.962532,81.863362 C419.962532,63.4060642 430.872484,55.3729272 446.044958,56.9111214 L446.556378,56.9111214 L446.556378,36.5724301 C445.192247,36.0596986 443.657987,35.8891328 441.100886,35.8891328 C430.872484,35.8891328 424.906603,41.0164471 419.622272,50.9289102 Z M347.987367,108.524363 C333.838764,108.524363 327.190303,97.4158708 327.190303,80.8378991 C327.190303,63.9187956 334.350184,53.1514355 348.327626,53.1514355 C356.851639,53.1514355 362.818551,58.9620472 364.35178,66.6530186 L387.025426,66.6530186 C383.955874,47.6829894 369.977401,34.5225381 347.305817,34.5225381 C320.711971,34.5225381 303.666008,54.6896298 303.666008,80.8378991 C303.666008,106.987202 320.883132,127.154294 348.498787,127.154294 C371.852952,127.154294 386.343876,112.285082 387.877105,93.6561849 L365.545781,93.6561849 C364.01152,103.568648 357.363059,108.524363 347.987367,108.524363 Z M264.59083,34.5225381 C252.658038,34.5225381 244.646476,39.4782528 238.679565,48.8790182 L238.169176,48.8790182 L238.169176,36.9156293 L215.49553,36.9156293 L215.49553,124.589603 L238.679565,124.589603 L238.679565,74.8567216 C238.679565,62.892299 246.179706,54.6896298 256.408108,54.6896298 C266.12509,54.6896298 271.580582,61.3541047 271.580582,70.7548701 L271.580582,124.589603 L294.763586,124.589603 L294.763586,67.336316 C294.763586,48.1957208 282.660664,34.5225381 264.59083,34.5225381 Z M182.456346,80.8378991 C182.456346,63.7482297 174.444785,52.1249389 160.295151,52.1249389 C145.975388,52.1249389 138.133956,63.7482297 138.133956,80.8378991 C138.133956,97.9286022 145.975388,109.37926 160.295151,109.37926 C174.444785,109.37926 182.456346,97.9286022 182.456346,80.8378991 Z M205.981672,80.8378991 C205.981672,106.987202 187.399387,127.154294 160.295151,127.154294 C133.190916,127.154294 114.609662,106.987202 114.609662,80.8378991 C114.609662,54.6896298 133.190916,34.5225381 160.295151,34.5225381 C187.399387,34.5225381 205.981672,54.6896298 205.981672,80.8378991 Z M84.8936781,85.2819161 L109.100553,85.2819161 C108.419004,96.0492762 103.816223,106.474471 95.6335006,114.164408 C87.280649,122.02698 75.5179862,127.154294 58.6411222,127.154294 C24.3770051,127.154294 0,100.663859 0,63.9187956 C0,27.6864636 22.5024854,0 58.4709925,0 C88.4736189,0 106.202162,17.9445664 108.759263,41.187013 L84.2121283,41.187013 C81.9963181,28.8824923 72.7907559,20.8503891 58.4709925,20.8503891 C35.9695382,20.8503891 25.2297157,39.6498524 25.2297157,63.9187956 C25.2297157,88.8700024 38.1853484,106.815602 58.6411222,106.815602 C73.1310153,106.815602 83.3594177,98.0991681 84.8936781,85.2819161 Z" id="Fill-1" fill="#FF0000" mask="url(#mask-2)"></path>
            </g>
        </g>
    </g>
</svg>