<?xml version="1.0" encoding="UTF-8"?>
<svg width="9px" height="19px" viewBox="0 0 9 19" version="1.1" xmlns="http://www.w3.org/2000/svg" xmlns:xlink="http://www.w3.org/1999/xlink">
    <!-- Generator: Sketch 49 (51002) - http://www.bohemiancoding.com/sketch -->
    <title>Shape</title>
    <desc>Created with Sketch.</desc>
    <defs></defs>
    <g id="Page-1" stroke="none" stroke-width="1" fill="none" fill-rule="evenodd">
        <g id="SHARE" fill="#ffffff" fill-rule="nonzero">
            <g id="Shape">
                <path d="M2.79021132,1.93457683 C3.49758264,1.26101985 4.50373534,1.03352155 5.45287038,1.00516682 C6.45668954,0.996140858 7.46011244,1.00160047 8.4639316,1.00199673 C8.46789422,2.06094031 8.46824645,3.12028015 8.46353534,4.1791797 C7.81481076,4.17803494 7.1656459,4.18076474 6.51692133,4.17803494 C6.10555757,4.15241001 5.6831425,4.46422401 5.60838111,4.87202141 C5.5985186,5.58058152 5.60481476,6.28953788 5.60521102,6.99814201 C6.55667959,7.0020606 7.50814817,6.99695323 8.45957272,7.00051958 C8.3899187,8.02556076 8.2627627,9.04593486 8.11359215,10.0623463 C7.27316493,10.0702275 6.43225339,10.0615538 5.5918702,10.0667052 C5.58438526,13.0899625 5.59578879,16.1132198 5.58597031,19.1364771 C4.33765762,19.1415844 3.08859645,19.1340995 1.84032779,19.1399994 C1.81668417,16.1163458 1.84226507,13.0911513 1.82733921,10.0671015 C1.21832887,10.0607613 0.608966307,10.0714604 0,10.0619941 C0.00233354163,9.04558263 0.000792523572,8.02921518 0.00114475627,7.01315593 C0.609714801,7.00571501 1.21872514,7.01474098 1.82733921,7.00884108 C1.84583143,6.0207403 1.80880296,5.03149477 1.84662395,4.04423054 C1.90764827,3.26236201 2.20563713,2.47463761 2.79021132,1.93457683 Z"></path>
            </g>
        </g>
    </g>
</svg>
