<?xml version="1.0" encoding="UTF-8"?>
<svg width="16px" height="13px" viewBox="0 0 16 13" version="1.1" xmlns="http://www.w3.org/2000/svg" xmlns:xlink="http://www.w3.org/1999/xlink">
    <!-- Generator: Sketch 49.1 (51147) - http://www.bohemiancoding.com/sketch -->
    <title>Shape</title>
    <desc>Created with Sketch.</desc>
    <defs></defs>
    <g id="Website-Pages" stroke="none" stroke-width="1" fill="none" fill-rule="evenodd">
        <g id="Desktop-Social-Feed" transform="translate(-365.000000, -32.000000)" fill="#ffffff" fill-rule="nonzero">
            <path d="M381,33.5381046 C380.41111,33.7991145 379.77924,33.9761285 379.115343,34.0551558 C379.793227,33.6491142 380.31213,33.0050752 380.558065,32.2400109 C379.922194,32.6160316 379.220311,32.8890708 378.47244,33.0370837 C377.873564,32.3980395 377.021719,32 376.076881,32 C374.264224,32 372.794496,33.4701128 372.794496,35.2822503 C372.794496,35.5392592 372.82349,35.7902796 372.87949,36.0303167 C370.152008,35.8932871 367.733469,34.5861977 366.114773,32.6000274 C365.831818,33.0840764 365.670851,33.6480943 365.670851,34.2501614 C365.670851,35.3892589 366.250747,36.3943342 367.130592,36.9823583 C366.592682,36.9643667 366.086773,36.8163538 365.64387,36.5703282 L365.64387,36.6113325 C365.64387,38.2014508 366.775663,39.5285455 368.276371,39.8305858 C368.001417,39.9045923 367.711482,39.9455965 367.411533,39.9455965 C367.199585,39.9455965 366.994618,39.9245975 366.79365,39.884587 C367.211559,41.189689 368.423352,42.1387495 369.859093,42.1647694 C368.736294,43.0448444 367.320553,43.5678841 365.782851,43.5678841 C365.517909,43.5678841 365.256942,43.5518799 365,43.5228788 C366.452734,44.4559612 368.177417,45 370.031067,45 C376.068933,45 379.369331,39.9976102 379.369331,35.6592908 L379.358324,35.2342638 C380.003188,34.7741949 380.561071,34.1961603 381,33.5381046 Z" id="Shape"></path>
        </g>
    </g>
</svg>
