<?xml version="1.0" encoding="UTF-8"?>
<svg width="15px" height="15px" viewBox="0 0 15 15" version="1.1" xmlns="http://www.w3.org/2000/svg" xmlns:xlink="http://www.w3.org/1999/xlink">
    <!-- Generator: Sketch 49.1 (51147) - http://www.bohemiancoding.com/sketch -->
    <title>Page 1</title>
    <desc>Created with Sketch.</desc>
    <defs>
        <polygon id="path-1" points="0 0 15 0 15 15 0 15"></polygon>
    </defs>
    <g id="Website-Pages" stroke="none" stroke-width="1" fill="none" fill-rule="evenodd">
        <g id="Desktop-Social-Feed" transform="translate(-729.000000, -32.000000)">
            <g id="Page-1" transform="translate(729.000000, 32.000000)">
                <mask id="mask-2" fill="white">
                    <use xlink:href="#path-1"></use>
                </mask>
                <g id="Clip-2"></g>
                <path d="M12.6252809,3.64550562 C12.6252809,3.09623596 12.1784831,2.6494382 11.6292135,2.6494382 C11.0799438,2.6494382 10.6331461,3.09623596 10.6331461,3.64550562 C10.6331461,4.19477528 11.0799438,4.64157303 11.6292135,4.64157303 C12.1784831,4.64157303 12.6252809,4.19477528 12.6252809,3.64550562 M11.2820225,7.5 C11.2820225,5.41449438 9.58550562,3.71797753 7.5,3.71797753 C5.41449438,3.71797753 3.71797753,5.41449438 3.71797753,7.5 C3.71797753,9.58533708 5.41449438,11.2820225 7.5,11.2820225 C9.58550562,11.2820225 11.2820225,9.58533708 11.2820225,7.5 M15,3.79213483 L15,11.2078652 C15,13.298764 13.298764,15 11.2078652,15 L3.79213483,15 C1.70106742,15 0,13.298764 0,11.2078652 L0,3.79213483 C0,1.70123596 1.70106742,0 3.79213483,0 L11.2078652,0 C13.298764,0 15,1.70123596 15,3.79213483 M10.1022472,7.5 C10.1022472,8.93494382 8.93494382,10.1022472 7.5,10.1022472 C6.06505618,10.1022472 4.89775281,8.93494382 4.89775281,7.5 C4.89775281,6.06505618 6.06505618,4.89775281 7.5,4.89775281 C8.93494382,4.89775281 10.1022472,6.06505618 10.1022472,7.5" id="Fill-1" fill="#000000" mask="url(#mask-2)"></path>
            </g>
        </g>
    </g>
</svg>