<?xml version="1.0" encoding="UTF-8"?>
<svg width="18px" height="19px" viewBox="0 0 18 19" version="1.1" xmlns="http://www.w3.org/2000/svg" xmlns:xlink="http://www.w3.org/1999/xlink">
    <!-- Generator: Sketch 49 (51002) - http://www.bohemiancoding.com/sketch -->
    <title>linkedin</title>
    <desc>Created with Sketch.</desc>
    <defs></defs>
    <g id="Page-1" stroke="none" stroke-width="1" fill="none" fill-rule="evenodd">
        <g id="SHARE" transform="translate(-91.000000, 0.000000)" fill="#ffffff" fill-rule="nonzero">
            <g id="linkedin">
                <g transform="translate(91.000000, 1.000000)">
                    <polygon id="Shape" points="0.143804348 5.76425184 3.77448261 5.71766087 3.77448261 17.9525634 0.143804348 18 0.143804348 5.76429211"></polygon>
                    <path d="M10.2834391,5.71887391 L10.2834391,7.2311087 L10.2842609,7.65946957 C11.3116304,6.65209565 12.3706957,5.89077391 14.062813,5.89077391 C16.0590913,5.89077391 17.9900217,6.72742174 17.9900217,9.45297391 L17.9900217,17.9643555 L14.4682826,18.0168294 L14.4682826,11.4307826 C14.4682826,10.057187 14.1240913,9.17166522 12.4836261,9.17166522 C11.0383435,9.17166522 10.4332696,9.43051304 10.4332696,11.332213 L10.4332696,17.9206859 L6.81456522,17.9643555 L6.81456522,5.76293478 L10.2834391,5.71887391 Z" id="Shape"></path>
                    <path d="M3.98488696,2.01322174 C3.98488696,3.11086957 3.09506087,4.00065652 1.99745217,4.00065652 C0.899843478,4.00065652 0.00997826087,3.11086957 0.00997826087,2.01318261 C0.00997826087,0.915534783 0.899765217,0.0257086957 1.99745217,0.0257086957 C3.0951,0.0257086957 3.98492609,0.915495652 3.98492609,2.01318261 L3.98488696,2.01322174 Z" id="Shape"></path>
                </g>
            </g>
        </g>
    </g>
</svg>
