<?xml version="1.0" encoding="UTF-8" standalone="no"?>
<svg width="100px" height="200px" viewBox="0 0 100 200" version="1.1" xmlns="http://www.w3.org/2000/svg" xmlns:xlink="http://www.w3.org/1999/xlink" xmlns:sketch="http://www.bohemiancoding.com/sketch/ns">
    <!-- Generator: Sketch 3.0.1 (7597) - http://www.bohemiancoding.com/sketch -->
    <title>instagram</title>
    <description>Created with Sketch.</description>
    <defs></defs>
    <g id="Page-1" stroke="none" stroke-width="1" fill="none" fill-rule="evenodd" sketch:type="MSPage">
        <g id="instagram" sketch:type="MSArtboardGroup">
            <path d="M84.4820348,94.8460127 L15.3639779,94.8460127 C9.64025541,94.8460127 5,90.2033761 5,84.4756848 L5,15.3647717 C5,9.64025541 9.64025541,5 15.3639779,5 L84.4820348,5 C90.2065511,5 94.8468065,9.64025541 94.8468065,15.3647717 L94.8468065,84.4756848 C94.8468065,90.2033761 90.2065511,94.8460127 84.4820348,94.8460127 L84.4820348,94.8460127 Z M49.9230064,32.643889 C40.3789709,32.643889 32.643889,40.3781772 32.643889,49.9214189 C32.643889,59.463073 40.3789709,67.20133 49.9230064,67.20133 C59.4654543,67.20133 67.2021237,59.463073 67.2021237,49.9214189 C67.2021237,40.3781772 59.4654543,32.643889 49.9230064,32.643889 L49.9230064,32.643889 Z M84.4820348,18.8199601 C84.4820348,16.9125818 82.9342247,15.3647717 81.0228776,15.3647717 L70.6581059,15.3647717 C68.7491401,15.3647717 67.2021237,16.9125818 67.2021237,18.8199601 L67.2021237,29.1887005 C67.2021237,31.0960789 68.7491401,32.643889 70.6581059,32.643889 L81.0228776,32.643889 C82.9342247,32.643889 84.4820348,31.0960789 84.4820348,29.1887005 L84.4820348,18.8199601 Z M84.4820348,43.0078669 L76.6604343,43.0078669 C77.2295521,45.2200448 77.5661016,47.5314413 77.5661016,49.9214189 C77.5661016,65.191558 65.1899705,77.5668954 49.9230064,77.5668954 C34.6560422,77.5668954 22.2791174,65.191558 22.2791174,49.9214189 C22.2791174,47.5314413 22.6172543,45.2200448 23.1863722,43.0078669 L15.3639779,43.0078669 L15.3639779,81.0228776 C15.3639779,82.9286684 16.9125818,84.4756848 18.8239289,84.4756848 L81.0228776,84.4756848 C82.9342247,84.4756848 84.4820348,82.9286684 84.4820348,81.0228776 L84.4820348,43.0078669 Z" id="Imported-Layers" fill="#999999" sketch:type="MSShapeGroup"></path>
            <path d="M84.4820348,193.846013 L15.3639779,193.846013 C9.64025541,193.846013 5,189.203376 5,183.475685 L5,114.364772 C5,108.640255 9.64025541,104 15.3639779,104 L84.4820348,104 C90.2065511,104 94.8468065,108.640255 94.8468065,114.364772 L94.8468065,183.475685 C94.8468065,189.203376 90.2065511,193.846013 84.4820348,193.846013 L84.4820348,193.846013 Z M49.9230064,131.643889 C40.3789709,131.643889 32.643889,139.378177 32.643889,148.921419 C32.643889,158.463073 40.3789709,166.20133 49.9230064,166.20133 C59.4654543,166.20133 67.2021237,158.463073 67.2021237,148.921419 C67.2021237,139.378177 59.4654543,131.643889 49.9230064,131.643889 L49.9230064,131.643889 Z M84.4820348,117.81996 C84.4820348,115.912582 82.9342247,114.364772 81.0228776,114.364772 L70.6581059,114.364772 C68.7491401,114.364772 67.2021237,115.912582 67.2021237,117.81996 L67.2021237,128.188701 C67.2021237,130.096079 68.7491401,131.643889 70.6581059,131.643889 L81.0228776,131.643889 C82.9342247,131.643889 84.4820348,130.096079 84.4820348,128.188701 L84.4820348,117.81996 Z M84.4820348,142.007867 L76.6604343,142.007867 C77.2295521,144.220045 77.5661016,146.531441 77.5661016,148.921419 C77.5661016,164.191558 65.1899705,176.566895 49.9230064,176.566895 C34.6560422,176.566895 22.2791174,164.191558 22.2791174,148.921419 C22.2791174,146.531441 22.6172543,144.220045 23.1863722,142.007867 L15.3639779,142.007867 L15.3639779,180.022878 C15.3639779,181.928668 16.9125818,183.475685 18.8239289,183.475685 L81.0228776,183.475685 C82.9342247,183.475685 84.4820348,181.928668 84.4820348,180.022878 L84.4820348,142.007867 Z" id="Imported-Layers-2" fill="#FFFFFF" sketch:type="MSShapeGroup"></path>
        </g>
    </g>
</svg>