<?xml version="1.0" encoding="UTF-8"?>
<svg width="110px" height="33px" viewBox="0 0 110 33" version="1.1" xmlns="http://www.w3.org/2000/svg" xmlns:xlink="http://www.w3.org/1999/xlink">
    <!-- Generator: Sketch 49 (51002) - http://www.bohemiancoding.com/sketch -->
    <title>Group 49</title>
    <desc>Created with Sketch.</desc>
    <defs>
        <polygon id="path-1" points="0 4.46530799e-06 109.89123 4.46530799e-06 109.89123 32.953973 0 32.953973"></polygon>
    </defs>
    <g id="Page-1" stroke="none" stroke-width="1" fill="none" fill-rule="evenodd">
        <g id="Desktop-/-Top-Nav-/-Homepage" transform="translate(-20.000000, -12.000000)">
            <g id="Page-1" transform="translate(20.000000, 12.000000)">
                <g id="Group-50">
                    <g id="Group-49">
                        <mask id="mask-2" fill="white">
                            <use xlink:href="#path-1"></use>
                        </mask>
                        <g id="Clip-48"></g>
                        <path d="M13.4405771,11.7437645 L13.4405771,9.42180433 C13.4405771,7.01053801 11.7884131,5.58163946 9.68971834,5.58163946 C7.63567667,5.58163946 5.89420655,7.01053801 5.89420655,9.42180433 L5.89420655,23.5768307 C5.89420655,26.0774031 7.63567667,27.4616486 9.68971834,27.4616486 C11.7884131,27.4616486 13.4405771,26.0774031 13.4405771,23.5768307 L13.4405771,20.2725027 L9.73437142,20.2725027 L9.73437142,15.2713578 L19.3347836,15.2713578 L19.3347836,23.219606 C19.3347836,29.5156903 15.092741,32.9539774 9.71204488,32.9539774 C4.35367529,32.9539774 0,29.5156903 0,23.2419326 L0,9.77902897 C0,3.52759778 4.33134875,4.46530799e-06 9.73437142,4.46530799e-06 C15.092741,4.46530799e-06 19.3794367,3.52759778 19.3794367,9.77902897 L19.3794367,11.7437645 L13.4405771,11.7437645 Z M84.7515457,0.848412984 L84.7515457,5.89421101 L80.1522785,5.89421101 L80.1522785,27.0597709 L84.7515457,27.0597709 L84.7515457,32.1055689 L69.7034578,32.1055689 L69.7034578,27.0597709 L74.302725,27.0597709 L74.302725,5.89421101 L69.7034578,5.89421101 L69.7034578,0.848412984 L84.7515457,0.848412984 Z M60.5942294,0.848412984 L66.5777422,0.848412984 L58.674147,32.1055689 L51.2170827,32.1055689 L43.3134875,0.848412984 L49.3416533,0.848412984 L54.8563087,23.4875245 L54.9679414,24.1126676 L55.0795741,23.4875245 L60.5942294,0.848412984 Z M109.89123,0.848412984 L109.89123,32.1055689 L103.148615,32.1055689 L94.9994275,11.1632744 L94.6422029,9.68972281 L94.686856,11.3195602 L94.686856,32.1055689 L89.2838333,32.1055689 L89.2838333,0.848412984 L96.4953057,0.848412984 L104.175635,19.9152781 L104.577513,21.5674421 L104.443554,19.7589923 L104.443554,0.848412984 L109.89123,0.848412984 Z M33.2665445,8.05988539 L33.3781772,8.70735505 L35.8528956,19.4240942 L30.7011804,19.4240942 L33.1549118,8.70735505 L33.2665445,8.05988539 Z M29.7612778,0.848412984 L21.6790703,32.1055689 L27.5732768,32.1055689 L29.4414278,24.5627707 L37.1259549,24.5627707 L39.0044653,32.1055689 L44.8540188,32.1055689 L36.7718113,0.848412984 L29.7612778,0.848412984 Z" id="Fill-47" fill="#FFFFFF" mask="url(#mask-2)"></path>
                    </g>
                </g>
            </g>
        </g>
    </g>
</svg>