<?xml version="1.0" encoding="UTF-8" standalone="no"?>
<svg width="100px" height="200px" viewBox="0 0 100 200" version="1.1" xmlns="http://www.w3.org/2000/svg" xmlns:xlink="http://www.w3.org/1999/xlink" xmlns:sketch="http://www.bohemiancoding.com/sketch/ns">
    <!-- Generator: Sketch 3.0.1 (7597) - http://www.bohemiancoding.com/sketch -->
    <title>twitter</title>
    <description>Created with Sketch.</description>
    <defs>
        <path id="path-1" d="M0,0 L98,0 L98,80 L0,80"></path>
        <path id="path-3" d="M0,0 L98,0 L98,80 L0,80"></path>
    </defs>
    <g id="Page-1" stroke="none" stroke-width="1" fill="none" fill-rule="evenodd" sketch:type="MSPage">
        <g id="twitter" sketch:type="MSArtboardGroup">
            <g id="Twitter_logo_white-(1)" sketch:type="MSLayerGroup" transform="translate(2.000000, 11.000000)">
                <mask id="mask-2" sketch:name="Clip 2" fill="white">
                    <use xlink:href="#path-1"></use>
                </mask>
                <g id="Clip-2"></g>
                <path d="M30.820586,80 C19.4662936,80 8.89775047,76.6567347 0,70.9265544 C1.57293244,71.1130715 3.17346648,71.2084905 4.79622517,71.2084905 C14.2158967,71.2084905 22.8853067,67.979728 29.7663484,62.5631701 C20.9682505,62.4000576 13.543063,56.5611357 10.9847178,48.5372989 C12.2120926,48.7731459 13.471729,48.899531 14.7672117,48.899531 C16.6011046,48.899531 18.3772852,48.6528819 20.0645671,48.1912701 C10.8664253,46.3361809 3.93627419,38.1733565 3.93627419,28.3880492 C3.93627419,28.3030723 3.93627419,28.2184555 3.93770804,28.1341987 C6.64875818,29.6468597 9.7487399,30.5553205 13.0448005,30.6601014 C7.6499433,27.0385007 4.10009144,20.8567905 4.10009144,13.8501562 C4.10009144,10.1489796 5.09159808,6.67968926 6.82225392,3.69685567 C16.7387542,15.9155272 31.5536413,23.9559272 48.2637185,24.7981348 C47.9210286,23.3200407 47.7428728,21.7785739 47.7428728,20.1956989 C47.7428728,9.04247945 56.7452943,0 67.84938,0 C73.6320933,0 78.8573979,2.45280811 82.5251838,6.37794921 C87.1048978,5.47200893 91.4078789,3.79119445 95.2925345,1.47701393 C93.7912945,6.19287238 90.6034895,10.15078 86.452138,12.6503974 C90.5192509,12.1621403 94.394228,11.0765242 98,9.47024458 C95.3043637,13.5203305 91.8953875,17.0774784 87.967358,19.9249251 C88.0060719,20.7908974 88.0254289,21.6619107 88.0254289,22.537605 C88.0254289,49.2257559 67.8024214,80 30.820586,80" id="Fill-1" fill="#999999" sketch:type="MSShapeGroup" mask="url(#mask-2)"></path>
            </g>
            <g id="Twitter_logo_white-(1)-2" sketch:type="MSLayerGroup" transform="translate(2.000000, 110.000000)">
                <mask id="mask-4" sketch:name="Clip 2" fill="white">
                    <use xlink:href="#path-3"></use>
                </mask>
                <g id="Clip-2"></g>
                <path d="M30.820586,80 C19.4662936,80 8.89775047,76.6567347 0,70.9265544 C1.57293244,71.1130715 3.17346648,71.2084905 4.79622517,71.2084905 C14.2158967,71.2084905 22.8853067,67.979728 29.7663484,62.5631701 C20.9682505,62.4000576 13.543063,56.5611357 10.9847178,48.5372989 C12.2120926,48.7731459 13.471729,48.899531 14.7672117,48.899531 C16.6011046,48.899531 18.3772852,48.6528819 20.0645671,48.1912701 C10.8664253,46.3361809 3.93627419,38.1733565 3.93627419,28.3880492 C3.93627419,28.3030723 3.93627419,28.2184555 3.93770804,28.1341987 C6.64875818,29.6468597 9.7487399,30.5553205 13.0448005,30.6601014 C7.6499433,27.0385007 4.10009144,20.8567905 4.10009144,13.8501562 C4.10009144,10.1489796 5.09159808,6.67968926 6.82225392,3.69685567 C16.7387542,15.9155272 31.5536413,23.9559272 48.2637185,24.7981348 C47.9210286,23.3200407 47.7428728,21.7785739 47.7428728,20.1956989 C47.7428728,9.04247945 56.7452943,0 67.84938,0 C73.6320933,0 78.8573979,2.45280811 82.5251838,6.37794921 C87.1048978,5.47200893 91.4078789,3.79119445 95.2925345,1.47701393 C93.7912945,6.19287238 90.6034895,10.15078 86.452138,12.6503974 C90.5192509,12.1621403 94.394228,11.0765242 98,9.47024458 C95.3043637,13.5203305 91.8953875,17.0774784 87.967358,19.9249251 C88.0060719,20.7908974 88.0254289,21.6619107 88.0254289,22.537605 C88.0254289,49.2257559 67.8024214,80 30.820586,80" id="Fill-1" fill="#FFFFFF" sketch:type="MSShapeGroup" mask="url(#mask-4)"></path>
            </g>
        </g>
    </g>
</svg>