<svg xmlns="http://www.w3.org/2000/svg" viewBox="-19924 -13392.001 26.199 26.201">
  <defs>
    <style>
      .cls-1 {
        fill: #fff;
      }

      .cls-2 {
        fill: none;
        stroke: #fff;
      }
    </style>
  </defs>
  <g id="Group_617" data-name="Group 617" transform="translate(-19974 -13392)">
    <g id="Group_49" data-name="Group 49">
      <path id="Path_30" data-name="Path 30" class="cls-1" d="M0,0A9.24,9.24,0,0,0,5.012,1.47a9.24,9.24,0,0,0,9.3-9.3c0-.141,0-.283-.011-.423a6.675,6.675,0,0,0,1.631-1.692,6.526,6.526,0,0,1-1.878.515,3.275,3.275,0,0,0,1.44-1.811,6.542,6.542,0,0,1-2.076.794,3.27,3.27,0,0,0-2.389-1.032,3.27,3.27,0,0,0-3.269,3.27,3.345,3.345,0,0,0,.085.746,9.294,9.294,0,0,1-6.74-3.418A3.264,3.264,0,0,0,.665-9.239,3.272,3.272,0,0,0,2.12-6.517a3.289,3.289,0,0,1-1.481-.41v.041A3.273,3.273,0,0,0,3.263-3.68a3.266,3.266,0,0,1-.862.114,3.357,3.357,0,0,1-.615-.057A3.276,3.276,0,0,0,4.84-1.352,6.563,6.563,0,0,1,.779.046,6.454,6.454,0,0,1,0,0" transform="translate(55.132 18.106)"/>
    </g>
    <g id="Group_616" data-name="Group 616">
      <path id="Path_31" data-name="Path 31" class="cls-2" d="M50.5-.5H75.7V-25.7H50.5Z" transform="translate(0 26.2)"/>
    </g>
  </g>
</svg>
